<svg width="22" height="30" viewBox="0 0 22 30" fill="none" xmlns="http://www.w3.org/2000/svg">
<path d="M18 0C19.1046 0 20 0.89543 20 2V4C20 5.10457 19.1046 6 18 6L8 6C6.89543 6 6 6.89543 6 8L6 22C6 23.1046 6.89543 24 8 24L18 24C19.1046 24 20 24.8954 20 26L20 28C20 29.1046 19.1046 30 18 30L5 30C2.23858 30 0 27.7614 0 25L0 5C0 2.23858 2.23858 0 5 0L18 0Z" fill="#373737"/>
<path d="M19 7C20.6569 7 22 8.34315 22 10L22 20C22 21.6569 20.6569 23 19 23L8 23C7.44771 23 7 22.5523 7 22L7 8C7 7.44772 7.44772 7 8 7L19 7Z" fill="#373737"/>
</svg>
